<svg width="310" height="42" viewBox="0 0 310 42" fill="none" xmlns="http://www.w3.org/2000/svg">
<path d="M2.5 38.5535C2.72022 38.5535 2.94044 38.5535 6.90775 38.3332C10.8751 38.113 18.5828 37.6726 38.7397 33.7019C58.8966 29.7313 91.269 22.2438 108.276 18.3866C128.216 13.8641 133.058 10.0983 136.735 7.7559C137.7 7.14086 137.302 4.9998 136.972 3.98212C136.641 2.96443 135.981 2.74421 135.2 2.63076C128.944 1.7218 116.881 5.61375 106.865 11.8333C101.885 14.9256 99.2704 18.7403 98.4896 21.5164C98.1538 22.7104 98.8099 23.6318 100.358 24.4159C101.906 25.2001 104.549 25.8607 113.178 25.8707C121.806 25.8807 136.341 25.2201 149.554 23.3382C162.767 21.4563 174.219 18.3732 179.898 17.6658C185.577 16.9585 185.137 18.7202 184.579 20.5087C183.463 24.0921 182.461 26.5347 182.567 27.4256C183.278 33.3592 197.122 21.8701 201.676 23.6418C206.145 25.3803 219.064 22.9979 233.965 20.9925C239.151 20.2947 239.618 21.1894 239.845 22.9612C240.072 24.7329 240.072 27.5958 241.283 29.2908C243.733 32.72 251.376 31.4397 259.034 30.3319C266.126 29.3059 270.536 27.8761 275.948 26.6649C280.259 25.4537 287.746 23.0312 293.365 21.453C298.984 19.8747 302.508 19.2141 307.473 18.5334" stroke="white" stroke-width="5" stroke-linecap="round"/>
</svg>
