<svg width="179" height="43" viewBox="0 0 179 43" fill="none" xmlns="http://www.w3.org/2000/svg">
<path d="M10.9858 10.5653C10.9176 9.87784 10.625 9.34375 10.108 8.96307C9.59091 8.58239 8.8892 8.39204 8.00284 8.39204C7.40057 8.39204 6.89205 8.47727 6.47727 8.64773C6.0625 8.8125 5.74432 9.04261 5.52273 9.33807C5.30682 9.63352 5.19886 9.96875 5.19886 10.3438C5.1875 10.6562 5.25284 10.929 5.39489 11.1619C5.54261 11.3949 5.74432 11.5966 6 11.767C6.25568 11.9318 6.55114 12.0767 6.88636 12.2017C7.22159 12.321 7.57955 12.4233 7.96023 12.5085L9.52841 12.8835C10.2898 13.054 10.9886 13.2812 11.625 13.5653C12.2614 13.8494 12.8125 14.1989 13.2784 14.6136C13.7443 15.0284 14.1051 15.517 14.3608 16.0795C14.6222 16.642 14.7557 17.2869 14.7614 18.0142C14.7557 19.0824 14.483 20.0085 13.9432 20.7926C13.4091 21.571 12.6364 22.1761 11.625 22.608C10.6193 23.0341 9.40625 23.2472 7.9858 23.2472C6.5767 23.2472 5.34943 23.0312 4.30398 22.5994C3.2642 22.1676 2.4517 21.5284 1.86648 20.6818C1.28693 19.8295 0.982955 18.7756 0.954545 17.5199H4.52557C4.56534 18.1051 4.73295 18.5937 5.02841 18.9858C5.32955 19.3722 5.73011 19.6648 6.23011 19.8636C6.7358 20.0568 7.30682 20.1534 7.94318 20.1534C8.56818 20.1534 9.1108 20.0625 9.57102 19.8807C10.0369 19.6989 10.3977 19.446 10.6534 19.1222C10.9091 18.7983 11.0369 18.4261 11.0369 18.0057C11.0369 17.6136 10.9205 17.2841 10.6875 17.017C10.4602 16.75 10.125 16.5227 9.68182 16.3352C9.24432 16.1477 8.70739 15.9773 8.07102 15.8239L6.17045 15.3466C4.69886 14.9886 3.53693 14.429 2.68466 13.6676C1.83239 12.9062 1.40909 11.8807 1.41477 10.5909C1.40909 9.53409 1.69034 8.6108 2.25852 7.82102C2.83239 7.03125 3.61932 6.41477 4.61932 5.97159C5.61932 5.52841 6.75568 5.30682 8.02841 5.30682C9.32386 5.30682 10.4545 5.52841 11.4205 5.97159C12.392 6.41477 13.1477 7.03125 13.6875 7.82102C14.2273 8.6108 14.5057 9.52557 14.5227 10.5653H10.9858ZM23.0902 23.2557C21.7663 23.2557 20.6214 22.9744 19.6555 22.4119C18.6953 21.8437 17.9538 21.054 17.4311 20.0426C16.9084 19.0256 16.647 17.8466 16.647 16.5057C16.647 15.1534 16.9084 13.9716 17.4311 12.9602C17.9538 11.9432 18.6953 11.1534 19.6555 10.5909C20.6214 10.0227 21.7663 9.73864 23.0902 9.73864C24.4141 9.73864 25.5561 10.0227 26.5163 10.5909C27.4822 11.1534 28.2266 11.9432 28.7493 12.9602C29.272 13.9716 29.5334 15.1534 29.5334 16.5057C29.5334 17.8466 29.272 19.0256 28.7493 20.0426C28.2266 21.054 27.4822 21.8437 26.5163 22.4119C25.5561 22.9744 24.4141 23.2557 23.0902 23.2557ZM23.1072 20.4432C23.7095 20.4432 24.2124 20.2727 24.6158 19.9318C25.0192 19.5852 25.3232 19.1136 25.5277 18.517C25.7379 17.9205 25.843 17.2415 25.843 16.4801C25.843 15.7188 25.7379 15.0398 25.5277 14.4432C25.3232 13.8466 25.0192 13.375 24.6158 13.0284C24.2124 12.6818 23.7095 12.5085 23.1072 12.5085C22.4993 12.5085 21.9879 12.6818 21.5732 13.0284C21.1641 13.375 20.8544 13.8466 20.6442 14.4432C20.4396 15.0398 20.3374 15.7188 20.3374 16.4801C20.3374 17.2415 20.4396 17.9205 20.6442 18.517C20.8544 19.1136 21.1641 19.5852 21.5732 19.9318C21.9879 20.2727 22.4993 20.4432 23.1072 20.4432ZM40.2891 17.4261V9.90909H43.9197V23H40.4339V20.6222H40.2976C40.0021 21.3892 39.5107 22.0057 38.8232 22.4716C38.1413 22.9375 37.3089 23.1705 36.326 23.1705C35.451 23.1705 34.6811 22.9716 34.0163 22.5739C33.3516 22.1761 32.8317 21.6108 32.4567 20.8778C32.0874 20.1449 31.8999 19.267 31.8942 18.2443V9.90909H35.5249V17.5966C35.5305 18.3693 35.7379 18.9801 36.147 19.429C36.5561 19.8778 37.1044 20.1023 37.7919 20.1023C38.2294 20.1023 38.6385 20.0028 39.0192 19.804C39.3999 19.5994 39.7067 19.2983 39.9396 18.9006C40.1783 18.5028 40.2947 18.0114 40.2891 17.4261ZM50.4545 15.4318V23H46.8239V9.90909H50.2841V12.2188H50.4375C50.7273 11.4574 51.2131 10.8551 51.8949 10.4119C52.5767 9.96307 53.4034 9.73864 54.375 9.73864C55.2841 9.73864 56.0767 9.9375 56.7528 10.3352C57.429 10.733 57.9545 11.3011 58.3295 12.0398C58.7045 12.7727 58.892 13.6477 58.892 14.6648V23H55.2614V15.3125C55.267 14.5114 55.0625 13.8864 54.6477 13.4375C54.233 12.983 53.6619 12.7557 52.9347 12.7557C52.446 12.7557 52.0142 12.8608 51.6392 13.071C51.2699 13.2812 50.9801 13.5881 50.7699 13.9915C50.5653 14.3892 50.4602 14.8693 50.4545 15.4318ZM66.5774 23.2131C65.5831 23.2131 64.6825 22.9574 63.8757 22.446C63.0746 21.929 62.4382 21.1705 61.9666 20.1705C61.5007 19.1648 61.2678 17.9318 61.2678 16.4716C61.2678 14.9716 61.5092 13.7244 61.9922 12.7301C62.4751 11.7301 63.1172 10.983 63.9183 10.4886C64.7251 9.98864 65.6087 9.73864 66.5689 9.73864C67.3018 9.73864 67.9126 9.86364 68.4013 10.1136C68.8956 10.358 69.2933 10.6648 69.5945 11.0341C69.9013 11.3977 70.1342 11.7557 70.2933 12.108H70.4041V5.54545H74.0263V23H70.4467V20.9034H70.2933C70.1229 21.267 69.8814 21.6278 69.5689 21.9858C69.2621 22.3381 68.8615 22.6307 68.3672 22.8636C67.8786 23.0966 67.282 23.2131 66.5774 23.2131ZM67.728 20.3239C68.3132 20.3239 68.8075 20.1648 69.2109 19.8466C69.62 19.5227 69.9325 19.071 70.1484 18.4915C70.37 17.9119 70.4808 17.233 70.4808 16.4545C70.4808 15.6761 70.3729 15 70.157 14.4261C69.9411 13.8523 69.6286 13.4091 69.2195 13.0966C68.8104 12.7841 68.3132 12.6278 67.728 12.6278C67.1314 12.6278 66.6286 12.7898 66.2195 13.1136C65.8104 13.4375 65.5007 13.8864 65.2905 14.4602C65.0803 15.0341 64.9751 15.6989 64.9751 16.4545C64.9751 17.2159 65.0803 17.8892 65.2905 18.4744C65.5064 19.054 65.8161 19.5085 66.2195 19.8381C66.6286 20.1619 67.1314 20.3239 67.728 20.3239ZM98.0348 11.6562H94.3018C94.2337 11.1733 94.0945 10.7443 93.8842 10.3693C93.674 9.98864 93.4041 9.66477 93.0746 9.39773C92.745 9.13068 92.3643 8.92614 91.9325 8.78409C91.5064 8.64205 91.0433 8.57102 90.5433 8.57102C89.6399 8.57102 88.853 8.79545 88.1825 9.24432C87.5121 9.6875 86.9922 10.3352 86.6229 11.1875C86.2536 12.0341 86.0689 13.0625 86.0689 14.2727C86.0689 15.517 86.2536 16.5625 86.6229 17.4091C86.9979 18.2557 87.5206 18.8949 88.1911 19.3267C88.8615 19.7585 89.6371 19.9744 90.5178 19.9744C91.0121 19.9744 91.4695 19.9091 91.8899 19.7784C92.3161 19.6477 92.6939 19.4574 93.0234 19.2074C93.353 18.9517 93.6257 18.642 93.8416 18.2784C94.0632 17.9148 94.2166 17.5 94.3018 17.0341L98.0348 17.0511C97.9382 17.8523 97.6967 18.625 97.3104 19.3693C96.9297 20.108 96.4155 20.7699 95.7678 21.3551C95.1257 21.9347 94.3587 22.3949 93.4666 22.7358C92.5803 23.071 91.5774 23.2386 90.4581 23.2386C88.9013 23.2386 87.5092 22.8864 86.282 22.1818C85.0604 21.4773 84.0945 20.4574 83.3842 19.1222C82.6797 17.7869 82.3274 16.1705 82.3274 14.2727C82.3274 12.3693 82.6854 10.75 83.4013 9.41477C84.1172 8.07955 85.0888 7.0625 86.3161 6.36364C87.5433 5.65909 88.924 5.30682 90.4581 5.30682C91.4695 5.30682 92.407 5.44886 93.2706 5.73295C94.1399 6.01705 94.9098 6.43182 95.5803 6.97727C96.2507 7.51704 96.7962 8.17898 97.2166 8.96307C97.6428 9.74716 97.9155 10.6449 98.0348 11.6562ZM100.613 23V9.90909H104.133V12.1932H104.269C104.508 11.3807 104.908 10.767 105.471 10.3523C106.033 9.93182 106.681 9.72159 107.414 9.72159C107.596 9.72159 107.792 9.73295 108.002 9.75568C108.212 9.77841 108.397 9.80966 108.556 9.84943V13.071C108.386 13.0199 108.15 12.9744 107.849 12.9347C107.548 12.8949 107.272 12.875 107.022 12.875C106.488 12.875 106.011 12.9915 105.59 13.2244C105.175 13.4517 104.846 13.7699 104.602 14.179C104.363 14.5881 104.244 15.0597 104.244 15.5938V23H100.613ZM113.791 23.2472C112.956 23.2472 112.212 23.1023 111.558 22.8125C110.905 22.517 110.388 22.0824 110.007 21.5085C109.632 20.929 109.445 20.2074 109.445 19.3438C109.445 18.6165 109.578 18.0057 109.845 17.5114C110.112 17.017 110.476 16.6193 110.936 16.3182C111.396 16.017 111.919 15.7898 112.504 15.6364C113.095 15.483 113.714 15.375 114.362 15.3125C115.124 15.233 115.737 15.1591 116.203 15.0909C116.669 15.017 117.007 14.9091 117.217 14.767C117.428 14.625 117.533 14.4148 117.533 14.1364V14.0852C117.533 13.5455 117.362 13.1278 117.021 12.8324C116.686 12.5369 116.209 12.3892 115.589 12.3892C114.936 12.3892 114.416 12.5341 114.03 12.8239C113.643 13.108 113.388 13.4659 113.263 13.8977L109.905 13.625C110.075 12.8295 110.411 12.142 110.911 11.5625C111.411 10.9773 112.055 10.5284 112.845 10.2159C113.641 9.89773 114.561 9.73864 115.607 9.73864C116.334 9.73864 117.03 9.82386 117.695 9.99432C118.365 10.1648 118.959 10.429 119.476 10.7869C119.999 11.1449 120.411 11.6051 120.712 12.1676C121.013 12.7244 121.163 13.392 121.163 14.1705V23H117.72V21.1847H117.618C117.408 21.5938 117.126 21.9545 116.774 22.267C116.422 22.5739 115.999 22.8153 115.504 22.9915C115.01 23.1619 114.439 23.2472 113.791 23.2472ZM114.831 20.7415C115.365 20.7415 115.837 20.6364 116.246 20.4261C116.655 20.2102 116.976 19.9205 117.209 19.5568C117.442 19.1932 117.558 18.7812 117.558 18.321V16.9318C117.445 17.0057 117.288 17.0739 117.089 17.1364C116.896 17.1932 116.678 17.2472 116.433 17.2983C116.189 17.3437 115.945 17.3864 115.7 17.4261C115.456 17.4602 115.234 17.4915 115.036 17.5199C114.609 17.5824 114.237 17.6818 113.919 17.8182C113.601 17.9545 113.354 18.1392 113.178 18.3722C113.001 18.5994 112.913 18.8835 112.913 19.2244C112.913 19.7188 113.092 20.0966 113.45 20.358C113.814 20.6136 114.274 20.7415 114.831 20.7415ZM131.02 9.90909V12.6364H122.94V9.90909H131.02ZM124.79 23V8.96307C124.79 8.0142 124.974 7.22727 125.344 6.60227C125.719 5.97727 126.23 5.50852 126.878 5.19602C127.526 4.88352 128.261 4.72727 129.085 4.72727C129.642 4.72727 130.151 4.76989 130.611 4.85511C131.077 4.94034 131.423 5.01705 131.651 5.08523L131.003 7.8125C130.861 7.76705 130.685 7.72443 130.474 7.68466C130.27 7.64489 130.06 7.625 129.844 7.625C129.31 7.625 128.938 7.75 128.727 8C128.517 8.24432 128.412 8.58807 128.412 9.03125V23H124.79ZM140.201 9.90909V12.6364H132.317V9.90909H140.201ZM134.107 6.77273H137.738V18.9773C137.738 19.3125 137.789 19.5739 137.891 19.7614C137.994 19.9432 138.136 20.071 138.317 20.1449C138.505 20.2187 138.721 20.2557 138.965 20.2557C139.136 20.2557 139.306 20.2415 139.477 20.2131C139.647 20.179 139.778 20.1534 139.869 20.1364L140.44 22.8381C140.258 22.8949 140.002 22.9602 139.673 23.0341C139.343 23.1136 138.942 23.1619 138.471 23.179C137.596 23.2131 136.829 23.0966 136.17 22.8295C135.516 22.5625 135.008 22.1477 134.644 21.5852C134.281 21.0227 134.102 20.3125 134.107 19.4545V6.77273ZM148.391 23.2557C147.045 23.2557 145.886 22.983 144.914 22.4375C143.948 21.8864 143.204 21.108 142.681 20.1023C142.158 19.0909 141.897 17.8949 141.897 16.5142C141.897 15.1676 142.158 13.9858 142.681 12.9688C143.204 11.9517 143.94 11.1591 144.888 10.5909C145.843 10.0227 146.962 9.73864 148.246 9.73864C149.11 9.73864 149.914 9.87784 150.658 10.1562C151.408 10.429 152.062 10.8409 152.619 11.392C153.181 11.9432 153.619 12.6364 153.931 13.4716C154.244 14.3011 154.4 15.2727 154.4 16.3864V17.3835H143.346V15.1335H150.982C150.982 14.6108 150.869 14.1477 150.641 13.7443C150.414 13.3409 150.099 13.0256 149.695 12.7983C149.298 12.5653 148.835 12.4489 148.306 12.4489C147.755 12.4489 147.266 12.5767 146.84 12.8324C146.42 13.0824 146.09 13.4205 145.852 13.8466C145.613 14.267 145.491 14.7358 145.485 15.2528V17.392C145.485 18.0398 145.604 18.5994 145.843 19.071C146.087 19.5426 146.431 19.9062 146.874 20.1619C147.317 20.4176 147.843 20.5455 148.451 20.5455C148.854 20.5455 149.224 20.4886 149.559 20.375C149.894 20.2614 150.181 20.0909 150.42 19.8636C150.658 19.6364 150.84 19.358 150.965 19.0284L154.323 19.25C154.153 20.0568 153.803 20.7614 153.275 21.3636C152.752 21.9602 152.076 22.4261 151.246 22.7614C150.423 23.0909 149.471 23.2557 148.391 23.2557ZM156.769 23V9.90909H160.289V12.1932H160.425C160.664 11.3807 161.065 10.767 161.627 10.3523C162.19 9.93182 162.837 9.72159 163.57 9.72159C163.752 9.72159 163.948 9.73295 164.158 9.75568C164.369 9.77841 164.553 9.80966 164.712 9.84943V13.071C164.542 13.0199 164.306 12.9744 164.005 12.9347C163.704 12.8949 163.428 12.875 163.178 12.875C162.644 12.875 162.167 12.9915 161.746 13.2244C161.332 13.4517 161.002 13.7699 160.758 14.179C160.519 14.5881 160.4 15.0597 160.4 15.5938V23H156.769ZM177.482 13.642L174.158 13.8466C174.101 13.5625 173.979 13.3068 173.791 13.0795C173.604 12.8466 173.357 12.6619 173.05 12.5256C172.749 12.3835 172.388 12.3125 171.967 12.3125C171.405 12.3125 170.93 12.4318 170.544 12.6705C170.158 12.9034 169.964 13.2159 169.964 13.608C169.964 13.9205 170.089 14.1847 170.339 14.4006C170.589 14.6165 171.018 14.7898 171.626 14.9205L173.996 15.3977C175.268 15.6591 176.217 16.0795 176.842 16.6591C177.467 17.2386 177.78 18 177.78 18.9432C177.78 19.8011 177.527 20.554 177.021 21.2017C176.521 21.8494 175.834 22.3551 174.959 22.7188C174.089 23.0767 173.087 23.2557 171.95 23.2557C170.217 23.2557 168.837 22.8949 167.808 22.1733C166.786 21.446 166.186 20.4574 166.01 19.2074L169.581 19.0199C169.689 19.5483 169.95 19.9517 170.365 20.2301C170.78 20.5028 171.311 20.6392 171.959 20.6392C172.595 20.6392 173.107 20.517 173.493 20.2727C173.885 20.0227 174.084 19.7017 174.089 19.3097C174.084 18.9801 173.945 18.7102 173.672 18.5C173.399 18.2841 172.979 18.1193 172.411 18.0057L170.143 17.554C168.865 17.2983 167.913 16.8551 167.288 16.2244C166.669 15.5937 166.359 14.7898 166.359 13.8125C166.359 12.9716 166.587 12.2472 167.041 11.6392C167.501 11.0312 168.146 10.5625 168.976 10.233C169.811 9.90341 170.788 9.73864 171.908 9.73864C173.561 9.73864 174.862 10.0881 175.811 10.7869C176.766 11.4858 177.322 12.4375 177.482 13.642Z" fill="black"/>
<path d="M9.75199 33.5H8.6071C8.53939 33.1707 8.4209 32.8814 8.25163 32.6321C8.08544 32.3828 7.88231 32.1735 7.64226 32.0043C7.40528 31.8319 7.14214 31.7027 6.85284 31.6165C6.56354 31.5303 6.26193 31.4872 5.94801 31.4872C5.37557 31.4872 4.85698 31.6319 4.39226 31.9212C3.93061 32.2105 3.56283 32.6367 3.28892 33.1999C3.01809 33.7631 2.88267 34.4541 2.88267 35.2727C2.88267 36.0914 3.01809 36.7823 3.28892 37.3455C3.56283 37.9087 3.93061 38.335 4.39226 38.6243C4.85698 38.9136 5.37557 39.0582 5.94801 39.0582C6.26193 39.0582 6.56354 39.0152 6.85284 38.929C7.14214 38.8428 7.40528 38.7151 7.64226 38.5458C7.88231 38.3735 8.08544 38.1626 8.25163 37.9134C8.4209 37.661 8.53939 37.3717 8.6071 37.0455H9.75199C9.66581 37.5286 9.50885 37.9611 9.28111 38.3427C9.05336 38.7243 8.77022 39.049 8.43167 39.3168C8.09313 39.5814 7.71304 39.783 7.2914 39.9215C6.87284 40.06 6.42505 40.1293 5.94801 40.1293C5.14166 40.1293 4.42457 39.9323 3.79673 39.5384C3.16889 39.1444 2.67493 38.5843 2.31484 37.858C1.95476 37.1316 1.77471 36.2699 1.77471 35.2727C1.77471 34.2756 1.95476 33.4138 2.31484 32.6875C2.67493 31.9612 3.16889 31.401 3.79673 31.0071C4.42457 30.6132 5.14166 30.4162 5.94801 30.4162C6.42505 30.4162 6.87284 30.4854 7.2914 30.6239C7.71304 30.7624 8.09313 30.9656 8.43167 31.2333C8.77022 31.498 9.05336 31.8211 9.28111 32.2028C9.50885 32.5813 9.66581 33.0137 9.75199 33.5ZM11.602 40V30.5455H14.7966C15.5353 30.5455 16.1416 30.6716 16.6155 30.924C17.0895 31.1733 17.4403 31.5165 17.6681 31.9535C17.8958 32.3905 18.0097 32.8875 18.0097 33.4446C18.0097 34.0017 17.8958 34.4956 17.6681 34.9265C17.4403 35.3574 17.091 35.6959 16.6202 35.9421C16.1493 36.1853 15.5476 36.3068 14.8151 36.3068H12.2299V35.2727H14.7782C15.2829 35.2727 15.6892 35.1989 15.9969 35.0511C16.3078 34.9034 16.5324 34.6941 16.6709 34.4233C16.8125 34.1494 16.8833 33.8232 16.8833 33.4446C16.8833 33.0661 16.8125 32.7352 16.6709 32.4521C16.5294 32.1689 16.3032 31.9504 15.9923 31.7965C15.6815 31.6396 15.2706 31.5611 14.7597 31.5611H12.7469V40H11.602ZM16.0523 35.7528L18.379 40H17.0495L14.7597 35.7528H16.0523ZM20.3053 40H19.105L22.5766 30.5455H23.7584L27.23 40H26.0297L23.2044 32.0412H23.1305L20.3053 40ZM20.7484 36.3068H25.5865V37.3224H20.7484V36.3068ZM28.7026 40V30.5455H34.3717V31.5611H29.8475V34.7557H33.9469V35.7713H29.8475V40H28.7026ZM35.8155 31.5611V30.5455H42.9064V31.5611H39.9334V40H38.7885V31.5611H35.8155ZM44.6733 40V30.5455H50.3793V31.5611H45.8182V34.7557H50.0838V35.7713H45.8182V38.9844H50.4532V40H44.6733ZM55.3605 40H52.4429V30.5455H55.4897C56.4069 30.5455 57.1917 30.7347 57.8441 31.1133C58.4966 31.4888 58.9967 32.0289 59.3445 32.7337C59.6923 33.4354 59.8662 34.2756 59.8662 35.2543C59.8662 36.2391 59.6907 37.087 59.3399 37.7979C58.989 38.5058 58.4781 39.0505 57.8072 39.4322C57.1363 39.8107 56.3207 40 55.3605 40ZM53.5877 38.9844H55.2866C56.0683 38.9844 56.7162 38.8336 57.2301 38.532C57.7441 38.2304 58.1273 37.801 58.3796 37.244C58.632 36.6869 58.7582 36.0237 58.7582 35.2543C58.7582 34.491 58.6336 33.8339 58.3843 33.283C58.135 32.729 57.7626 32.3043 57.2671 32.0089C56.7716 31.7103 56.1545 31.5611 55.4159 31.5611H53.5877V38.9844ZM65.4429 40V30.5455H71.1119V31.5611H66.5877V34.7557H70.6872V35.7713H66.5877V40H65.4429ZM81.05 35.2727C81.05 36.2699 80.87 37.1316 80.5099 37.858C80.1498 38.5843 79.6558 39.1444 79.028 39.5384C78.4002 39.9323 77.6831 40.1293 76.8767 40.1293C76.0704 40.1293 75.3533 39.9323 74.7254 39.5384C74.0976 39.1444 73.6036 38.5843 73.2436 37.858C72.8835 37.1316 72.7034 36.2699 72.7034 35.2727C72.7034 34.2756 72.8835 33.4138 73.2436 32.6875C73.6036 31.9612 74.0976 31.401 74.7254 31.0071C75.3533 30.6132 76.0704 30.4162 76.8767 30.4162C77.6831 30.4162 78.4002 30.6132 79.028 31.0071C79.6558 31.401 80.1498 31.9612 80.5099 32.6875C80.87 33.4138 81.05 34.2756 81.05 35.2727ZM79.9421 35.2727C79.9421 34.4541 79.8051 33.7631 79.5312 33.1999C79.2604 32.6367 78.8926 32.2105 78.4279 31.9212C77.9662 31.6319 77.4492 31.4872 76.8767 31.4872C76.3043 31.4872 75.7857 31.6319 75.321 31.9212C74.8593 32.2105 74.4915 32.6367 74.2176 33.1999C73.9468 33.7631 73.8114 34.4541 73.8114 35.2727C73.8114 36.0914 73.9468 36.7823 74.2176 37.3455C74.4915 37.9087 74.8593 38.335 75.321 38.6243C75.7857 38.9136 76.3043 39.0582 76.8767 39.0582C77.4492 39.0582 77.9662 38.9136 78.4279 38.6243C78.8926 38.335 79.2604 37.9087 79.5312 37.3455C79.8051 36.7823 79.9421 36.0914 79.9421 35.2727ZM82.9751 40V30.5455H86.1697C86.9083 30.5455 87.5146 30.6716 87.9886 30.924C88.4625 31.1733 88.8134 31.5165 89.0411 31.9535C89.2689 32.3905 89.3828 32.8875 89.3828 33.4446C89.3828 34.0017 89.2689 34.4956 89.0411 34.9265C88.8134 35.3574 88.4641 35.6959 87.9932 35.9421C87.5223 36.1853 86.9206 36.3068 86.1882 36.3068H83.6029V35.2727H86.1512C86.656 35.2727 87.0622 35.1989 87.37 35.0511C87.6808 34.9034 87.9055 34.6941 88.044 34.4233C88.1856 34.1494 88.2563 33.8232 88.2563 33.4446C88.2563 33.0661 88.1856 32.7352 88.044 32.4521C87.9024 32.1689 87.6762 31.9504 87.3654 31.7965C87.0545 31.6396 86.6436 31.5611 86.1328 31.5611H84.12V40H82.9751ZM87.4254 35.7528L89.7521 40H88.4225L86.1328 35.7528H87.4254ZM100.117 32.9091C100.062 32.4413 99.8372 32.0781 99.4432 31.8196C99.0493 31.5611 98.5661 31.4318 97.9936 31.4318C97.5751 31.4318 97.2088 31.4995 96.8949 31.6349C96.5841 31.7704 96.3409 31.9566 96.1655 32.1935C95.9932 32.4305 95.907 32.6998 95.907 33.0014C95.907 33.2538 95.967 33.4708 96.087 33.6523C96.2101 33.8308 96.3671 33.9801 96.5579 34.1001C96.7487 34.2171 96.9488 34.314 97.1581 34.391C97.3673 34.4648 97.5597 34.5249 97.7351 34.571L98.6953 34.8295C98.9416 34.8942 99.2155 34.9834 99.5171 35.0973C99.8218 35.2112 100.113 35.3666 100.39 35.5636C100.67 35.7575 100.9 36.0067 101.082 36.3114C101.264 36.6161 101.354 36.9901 101.354 37.4332C101.354 37.9441 101.221 38.4058 100.953 38.8182C100.688 39.2306 100.3 39.5584 99.7895 39.8015C99.2816 40.0446 98.6646 40.1662 97.9382 40.1662C97.2612 40.1662 96.6749 40.0569 96.1794 39.8384C95.6869 39.6199 95.2992 39.3152 95.016 38.9244C94.7359 38.5335 94.5774 38.0795 94.5405 37.5625H95.7223C95.7531 37.9195 95.8731 38.215 96.0824 38.4489C96.2948 38.6797 96.5625 38.852 96.8857 38.9659C97.2119 39.0767 97.5628 39.1321 97.9382 39.1321C98.3753 39.1321 98.7677 39.0613 99.1154 38.9197C99.4632 38.7751 99.7387 38.575 99.9418 38.3196C100.145 38.0611 100.246 37.7595 100.246 37.4148C100.246 37.1009 100.159 36.8454 99.9833 36.6484C99.8079 36.4515 99.5771 36.2914 99.2909 36.1683C99.0046 36.0452 98.6953 35.9375 98.363 35.8452L97.1996 35.5128C96.461 35.3004 95.8762 34.9973 95.4453 34.6033C95.0145 34.2094 94.799 33.6939 94.799 33.0568C94.799 32.5275 94.9421 32.0658 95.2284 31.6719C95.5177 31.2749 95.9055 30.9671 96.3917 30.7486C96.8811 30.527 97.4274 30.4162 98.0306 30.4162C98.6399 30.4162 99.1816 30.5254 99.6556 30.744C100.13 30.9594 100.505 31.2549 100.782 31.6303C101.062 32.0058 101.21 32.4321 101.225 32.9091H100.117ZM111.214 35.2727C111.214 36.2699 111.034 37.1316 110.674 37.858C110.314 38.5843 109.82 39.1444 109.192 39.5384C108.564 39.9323 107.847 40.1293 107.041 40.1293C106.234 40.1293 105.517 39.9323 104.89 39.5384C104.262 39.1444 103.768 38.5843 103.408 37.858C103.048 37.1316 102.867 36.2699 102.867 35.2727C102.867 34.2756 103.048 33.4138 103.408 32.6875C103.768 31.9612 104.262 31.401 104.89 31.0071C105.517 30.6132 106.234 30.4162 107.041 30.4162C107.847 30.4162 108.564 30.6132 109.192 31.0071C109.82 31.401 110.314 31.9612 110.674 32.6875C111.034 33.4138 111.214 34.2756 111.214 35.2727ZM110.106 35.2727C110.106 34.4541 109.969 33.7631 109.695 33.1999C109.424 32.6367 109.057 32.2105 108.592 31.9212C108.13 31.6319 107.613 31.4872 107.041 31.4872C106.468 31.4872 105.95 31.6319 105.485 31.9212C105.023 32.2105 104.656 32.6367 104.382 33.1999C104.111 33.7631 103.975 34.4541 103.975 35.2727C103.975 36.0914 104.111 36.7823 104.382 37.3455C104.656 37.9087 105.023 38.335 105.485 38.6243C105.95 38.9136 106.468 39.0582 107.041 39.0582C107.613 39.0582 108.13 38.9136 108.592 38.6243C109.057 38.335 109.424 37.9087 109.695 37.3455C109.969 36.7823 110.106 36.0914 110.106 35.2727ZM119.344 30.5455H120.489V36.8054C120.489 37.4517 120.336 38.0288 120.032 38.5366C119.73 39.0413 119.304 39.4399 118.753 39.7322C118.202 40.0215 117.556 40.1662 116.814 40.1662C116.072 40.1662 115.426 40.0215 114.875 39.7322C114.324 39.4399 113.896 39.0413 113.592 38.5366C113.29 38.0288 113.139 37.4517 113.139 36.8054V30.5455H114.284V36.7131C114.284 37.1747 114.386 37.5856 114.589 37.9457C114.792 38.3027 115.081 38.5843 115.457 38.7905C115.835 38.9936 116.288 39.0952 116.814 39.0952C117.34 39.0952 117.793 38.9936 118.171 38.7905C118.55 38.5843 118.839 38.3027 119.039 37.9457C119.242 37.5856 119.344 37.1747 119.344 36.7131V30.5455ZM130.272 30.5455V40H129.164L124.012 32.5767H123.92V40H122.775V30.5455H123.883L129.053 37.9872H129.146V30.5455H130.272ZM135.481 40H132.563V30.5455H135.61C136.527 30.5455 137.312 30.7347 137.964 31.1133C138.617 31.4888 139.117 32.0289 139.465 32.7337C139.812 33.4354 139.986 34.2756 139.986 35.2543C139.986 36.2391 139.811 37.087 139.46 37.7979C139.109 38.5058 138.598 39.0505 137.927 39.4322C137.256 39.8107 136.441 40 135.481 40ZM133.708 38.9844H135.407C136.188 38.9844 136.836 38.8336 137.35 38.532C137.864 38.2304 138.247 37.801 138.5 37.244C138.752 36.6869 138.878 36.0237 138.878 35.2543C138.878 34.491 138.754 33.8339 138.504 33.283C138.255 32.729 137.883 32.3043 137.387 32.0089C136.892 31.7103 136.275 31.5611 135.536 31.5611H133.708V38.9844Z" fill="#A2A2A2"/>
</svg>
